# xmcd CD database file
#
# Track frame offsets:
#	150
#	9218
#	18048
#	28768
#	39875
#	50244
#	62830
#	72258
#	82988
#	96137
#	109428
#	119565
#	131011
#	140060
#	151743
#
# Disc length: 2172 seconds
#
# Revision: 0
# Processed by: cddbd v1.5.2PL0 Copyright (c) Steve Scherf et al.
# Submitted via: CDex 1.51
#
DISCID=c6087a0f
DTITLE=Patsy Cline - Patsy Cline
DYEAR=1900
DGENRE=Country
TTITLE0=I fall to pieces
TTITLE1=I love you so much it hurts
TTITLE2=Crazy
TTITLE3=I cried all the way to the alter
TTITLE4=Pick me up on your way down
TTITLE5=Fingerprints
TTITLE6=Love me, love me, honey do
TTITLE7=Honky tonk merry go round
TTITLE8=If I could see the world
TTITLE9=Life's railway to heaven
TTITLE10=Turn the cards slowly
TTITLE11=Cry not for me
TTITLE12=Try again
TTITLE13=I've loved and lost again
TTITLE14=The heart you break maybe your own
EXTD=
EXTT0=
EXTT1=
EXTT2=
EXTT3=
EXTT4=
EXTT5=
EXTT6=
EXTT7=
EXTT8=
EXTT9=
EXTT10=
EXTT11=
EXTT12=
EXTT13=
EXTT14=
PLAYORDER=
